
<svg width="18" height="18" viewBox="0 0 18 18" fill="none" xmlns="http://www.w3.org/2000/svg">
<path fill-rule="evenodd" clip-rule="evenodd" d="M3.71978 3.91434L6.67944 2.26768C8.12279 1.46828 9.87602 1.46828 11.3194 2.26768L14.279 3.91434C15.6915 4.68649 16.5734 6.16455 16.5822 7.77426V12.3048C16.58 13.5445 16.0615 14.7273 15.1511 15.5688C14.2725 16.3866 13.1155 16.8394 11.9152 16.8353H6.08253C4.88219 16.8394 3.72526 16.3866 2.84661 15.5688C1.93627 14.7273 1.41769 13.5445 1.41553 12.3048V7.77426C1.42451 6.16432 2.3069 4.6862 3.71978 3.91434Z" stroke="#006FFD" stroke-width="1.5" stroke-linecap="round" stroke-linejoin="round"/>
<path d="M6.47168 16.8353V15.3186C6.47168 13.9224 7.60348 12.7906 8.99964 12.7906C10.3958 12.7906 11.5276 13.9224 11.5276 15.3186V16.8353" stroke="#006FFD" stroke-width="1.5" stroke-linecap="round" stroke-linejoin="round"/>
</svg>
