<svg width="16" height="17" viewBox="0 0 16 17" fill="none" xmlns="http://www.w3.org/2000/svg">
<path d="M10.7155 1.74273C11.1418 1.27737 11.7143 1.00639 12.3169 0.984728C12.9195 0.963068 13.5071 1.19235 13.9606 1.62609L14.0746 1.74273L14.6343 2.35357C15.0604 2.81877 15.3086 3.4434 15.3284 4.10087C15.3483 4.75833 15.1383 5.39944 14.7412 5.89424L14.6343 6.01865L5.75811 15.7067C5.63261 15.8436 5.48058 15.9481 5.31319 16.0125L5.18494 16.0531L1.65886 16.9413C1.53533 16.9725 1.40676 16.9708 1.28394 16.9365C1.16111 16.9022 1.04763 16.8362 0.953004 16.7441C0.858382 16.652 0.785388 16.5365 0.740151 16.4073C0.694913 16.278 0.678753 16.1388 0.693027 16.0013L0.70886 15.9037L1.5219 12.0545C1.56207 11.8658 1.64052 11.6892 1.75149 11.5379L1.83936 11.4299L10.7155 1.74273ZM10.1558 4.79696L3.03873 12.5643L2.53524 14.9472L4.71865 14.3968L11.8357 6.6295L10.1558 4.79696ZM12.9552 2.96442C12.8188 2.81566 12.6375 2.72629 12.4451 2.71309C12.2527 2.69989 12.0625 2.76375 11.9102 2.89271L11.8357 2.96442L11.2752 3.57527L12.9552 5.40781L13.5149 4.79696C13.6512 4.64819 13.733 4.45024 13.7451 4.24027C13.7572 4.0303 13.6987 3.82272 13.5806 3.65648L13.5149 3.57527L12.9552 2.96442Z" fill="#1E1E1E"/>
</svg>
