<svg width="18" height="19" viewBox="0 0 18 19" fill="none" xmlns="http://www.w3.org/2000/svg">
<path fill-rule="evenodd" clip-rule="evenodd" d="M1.52991 8.94022L1.53027 12.1902C1.53061 15.1818 3.956 17.6072 6.94755 17.6075L11.2809 17.6081C12.7175 17.6082 14.0952 17.0377 15.1109 16.022C16.1266 15.0063 16.6971 13.6287 16.6969 12.1921L16.6966 8.94207C16.6979 7.50504 16.1275 6.12638 15.1112 5.11012C14.095 4.09386 12.7163 3.52348 11.2793 3.52474L6.94597 3.52421C5.50894 3.5226 4.13041 4.09265 3.11439 5.10866C2.09837 6.12467 1.52831 7.50319 1.52991 8.94022V8.94022Z" stroke="#1E1E1E" stroke-width="1.5" stroke-linecap="round" stroke-linejoin="round"/>
<path d="M5.11328 5.69066C5.11333 6.10487 5.44915 6.4407 5.86336 6.44075C6.27758 6.4408 6.61333 6.10505 6.61328 5.69084L5.11328 5.69066ZM6.61279 1.35751C6.61275 0.943292 6.27692 0.607465 5.86271 0.607414C5.4485 0.607364 5.11275 0.943109 5.11279 1.35732L6.61279 1.35751ZM11.6133 5.69145C11.6133 6.10566 11.9492 6.44149 12.3634 6.44154C12.7776 6.44159 13.1133 6.10584 13.1133 5.69163L11.6133 5.69145ZM13.1128 1.3583C13.1127 0.944083 12.7769 0.608255 12.3627 0.608205C11.9485 0.608154 11.6127 0.9439 11.6128 1.35811L13.1128 1.3583ZM9.86352 7.8579C9.86348 7.44369 9.52765 7.10786 9.11344 7.10781C8.69922 7.10776 8.36348 7.4435 8.36352 7.85772L9.86352 7.8579ZM8.36383 10.5661C8.36387 10.9803 8.6997 11.3161 9.11391 11.3161C9.52812 11.3162 9.86387 10.9804 9.86383 10.5662L8.36383 10.5661ZM9.86383 10.5662C9.86378 10.152 9.52796 9.81619 9.11374 9.81614C8.69953 9.81609 8.36378 10.1518 8.36383 10.5661L9.86383 10.5662ZM8.36413 13.2744C8.36418 13.6886 8.7 14.0244 9.11421 14.0245C9.52843 14.0245 9.86418 13.6888 9.86413 13.2746L8.36413 13.2744ZM9.11391 11.3161C9.52812 11.3162 9.86387 10.9804 9.86383 10.5662C9.86378 10.152 9.52796 9.81619 9.11374 9.81614L9.11391 11.3161ZM6.40541 9.81581C5.9912 9.81576 5.65545 10.1515 5.65549 10.5657C5.65554 10.9799 5.99136 11.3158 6.40558 11.3158L6.40541 9.81581ZM9.11374 9.81614C8.69953 9.81609 8.36378 10.1518 8.36383 10.5661C8.36387 10.9803 8.6997 11.3161 9.11391 11.3161L9.11374 9.81614ZM11.8222 11.3165C12.2365 11.3165 12.5722 10.9808 12.5722 10.5666C12.5721 10.1524 12.2363 9.81652 11.8221 9.81647L11.8222 11.3165ZM6.61328 5.69084L6.61279 1.35751L5.11279 1.35732L5.11328 5.69066L6.61328 5.69084ZM13.1133 5.69163L13.1128 1.3583L11.6128 1.35811L11.6133 5.69145L13.1133 5.69163ZM8.36352 7.85772L8.36383 10.5661L9.86383 10.5662L9.86352 7.8579L8.36352 7.85772ZM8.36383 10.5661L8.36413 13.2744L9.86413 13.2746L9.86383 10.5662L8.36383 10.5661ZM9.11374 9.81614L6.40541 9.81581L6.40558 11.3158L9.11391 11.3161L9.11374 9.81614ZM9.11391 11.3161L11.8222 11.3165L11.8221 9.81647L9.11374 9.81614L9.11391 11.3161Z" fill="#1E1E1E"/>
</svg>
