<svg width="21" height="21" viewBox="0 0 21 21" fill="none" xmlns="http://www.w3.org/2000/svg">
<g clip-path="url(#clip0_577_1404)">
<path d="M10.1323 0.842422C15.4743 0.842422 20.1323 5.25242 20.1323 10.3424C20.1323 15.3464 15.5793 19.2844 10.1323 19.2844C8.9673 19.285 7.80957 19.1007 6.70232 18.7384C6.23832 19.1884 6.07932 19.3414 5.09432 20.2914C4.38432 20.8274 3.71632 21.0094 3.11932 20.6714C2.51732 20.3314 2.33632 19.6694 2.45932 18.7974L2.85932 16.4784C1.12232 14.8444 0.132324 12.6844 0.132324 10.3424C0.132324 5.25242 4.78932 0.842422 10.1323 0.842422ZM10.1323 2.24242C5.54632 2.24242 1.53232 6.04242 1.53232 10.3424C1.53232 12.3874 2.44432 14.2704 4.05232 15.6724L4.07232 15.6894L4.36932 15.9474L4.30232 16.3374L4.16432 17.1414L4.12732 17.3554L3.84232 19.0134C3.82552 19.125 3.8155 19.2376 3.81232 19.3504V19.4454C3.81232 19.4504 3.81132 19.4524 3.81032 19.4534C3.81732 19.4434 3.95332 19.4004 4.18632 19.2304L6.35632 17.1244L6.77032 17.2804C7.84575 17.6817 8.98448 17.8866 10.1323 17.8854C14.8483 17.8854 18.7323 14.5254 18.7323 10.3424C18.7323 6.04342 14.7183 2.24242 10.1323 2.24242ZM5.35932 8.65542C5.56078 8.64806 5.76166 8.68139 5.94995 8.7534C6.13824 8.82542 6.31008 8.93465 6.45521 9.07457C6.60033 9.2145 6.71577 9.38223 6.79461 9.56777C6.87345 9.75331 6.91409 9.95283 6.91409 10.1544C6.91409 10.356 6.87345 10.5555 6.79461 10.7411C6.71577 10.9266 6.60033 11.0943 6.45521 11.2343C6.31008 11.3742 6.13824 11.4834 5.94995 11.5554C5.76166 11.6275 5.56078 11.6608 5.35932 11.6534C4.97124 11.6392 4.60378 11.4751 4.33424 11.1955C4.0647 10.916 3.91409 10.5428 3.91409 10.1544C3.91409 9.76608 4.0647 9.39287 4.33424 9.1133C4.60378 8.83374 4.97124 8.6696 5.35932 8.65542ZM10.3573 8.65542C10.5588 8.64806 10.7597 8.68139 10.9479 8.7534C11.1362 8.82542 11.3081 8.93465 11.4532 9.07457C11.5983 9.2145 11.7138 9.38223 11.7926 9.56777C11.8715 9.75331 11.9121 9.95283 11.9121 10.1544C11.9121 10.356 11.8715 10.5555 11.7926 10.7411C11.7138 10.9266 11.5983 11.0943 11.4532 11.2343C11.3081 11.3742 11.1362 11.4834 10.9479 11.5554C10.7597 11.6275 10.5588 11.6608 10.3573 11.6534C9.96924 11.6392 9.60178 11.4751 9.33224 11.1955C9.0627 10.916 8.91209 10.5428 8.91209 10.1544C8.91209 9.76608 9.0627 9.39287 9.33224 9.1133C9.60178 8.83374 9.96924 8.6696 10.3573 8.65542ZM15.3543 8.65542C15.5558 8.64806 15.7567 8.68139 15.9449 8.7534C16.1332 8.82542 16.3051 8.93465 16.4502 9.07457C16.5953 9.2145 16.7108 9.38223 16.7896 9.56777C16.8685 9.75331 16.9091 9.95283 16.9091 10.1544C16.9091 10.356 16.8685 10.5555 16.7896 10.7411C16.7108 10.9266 16.5953 11.0943 16.4502 11.2343C16.3051 11.3742 16.1332 11.4834 15.9449 11.5554C15.7567 11.6275 15.5558 11.6608 15.3543 11.6534C14.9662 11.6392 14.5988 11.4751 14.3292 11.1955C14.0597 10.916 13.9091 10.5428 13.9091 10.1544C13.9091 9.76608 14.0597 9.39287 14.3292 9.1133C14.5988 8.83374 14.9662 8.6696 15.3543 8.65542Z" fill="black"/>
</g>
<defs>
<clipPath id="clip0_577_1404">
<rect width="20" height="20" fill="white" transform="translate(0.132324 0.842422)"/>
</clipPath>
</defs>
</svg>
